<?xml version="1.0" encoding="UTF-8"?>
<svg id="Calque_2" data-name="Calque 2" xmlns="http://www.w3.org/2000/svg" xmlns:xlink="http://www.w3.org/1999/xlink" viewBox="0 0 410.06 451.89">
  <defs>
    <style>
      .cls-1, .cls-2 {
        fill: none;
      }

      .cls-3 {
        fill: #e8bb4a;
      }

      .cls-4 {
        fill: #60352c;
      }

      .cls-5 {
        fill: #134536;
      }

      .cls-6 {
        fill: #cc393e;
      }

      .cls-7 {
        fill: #ab982c;
      }

      .cls-8 {
        fill: #faead7;
      }

      .cls-9 {
        clip-path: url(#clippath-1);
      }

      .cls-10 {
        fill: #8a432f;
      }

      .cls-11 {
        fill: #e3b599;
      }

      .cls-2 {
        stroke: #000;
        stroke-miterlimit: 10;
      }

      .cls-12 {
        fill: #f1a495;
      }

      .cls-13 {
        clip-path: url(#clippath);
      }
    </style>
    <clipPath id="clippath">
      <path class="cls-1" d="M185.71,364.95c1.83-1.93,4.49-3,7.26-2.96l43.02.62c2.65.04,5.38.09,7.83,1.03,7.03,2.71,8.7,11.06,9.38,18.08.61,6.3.65,13.83-4.91,17.51-3.44,2.27-7.99,2.28-12.21,2.19-13.64-.28-27.28-.56-40.92-.84-3.64-.07-7.53-.23-10.46-2.22-3.7-2.52-4.74-7.18-5.07-11.42-.61-7.9.32-15.9,6.08-21.99Z"/>
    </clipPath>
    <clipPath id="clippath-1">
      <path class="cls-1" d="M23.33,182.69c37.26-2.89,74.79-2.38,112.21,1.43,6.85.7,12.23,6.13,12.98,12.97,4.4,40.05,3.99,80.74-1.38,121.57-.36,2.73-2.61,4.84-5.36,5.01-41.55,2.63-83.4.21-124.6-8.59-2.4-.51-4.21-2.49-4.53-4.92-4.85-37.35-6.78-75.11-3.49-113.34.65-7.54,6.63-13.55,14.17-14.13Z"/>
    </clipPath>
  </defs>
  <g id="OBJECTS">
    <g id="secret-santa">
      <g id="santa">
        <g id="secret-santa-2" data-name="secret-santa">
          <g id="body">
            <path class="cls-6" d="M398.33,389.6c13.26-13.39,13.28-34.89,9.73-53.4-5.86-30.54-18.91-59.23-33.63-86.61-11.24-20.91-24.44-42.19-45.14-53.82-21.67-12.17-47.91-11.79-72.75-11.09-28.15.8-56.3,1.6-84.45,2.39-14.42.41-29.02.85-42.87,4.86-13.85,4.02-27.1,12.09-34.34,24.56-8.84,15.23-7.45,34.06-6.06,51.61,4.88,61.53-12.31,109.81.5,179.93,36.48,9.75,262.05-1.57,262.51-6.03,6.4-61.48-2.52-68.28-15.05-71.37,9.48,9.93,19.71,20.32,33.04,23.6,9.19,2.26,20.88,3.07,28.5-4.64Z"/>
            <g>
              <path d="M210.4,345.81c0-3.66,2.97-6.63,6.63-6.63s6.63,2.97,6.63,6.63-2.97,6.63-6.63,6.63-6.63-2.97-6.63-6.63Z"/>
              <path d="M210.4,319.66c0-3.66,2.97-6.63,6.63-6.63s6.63,2.97,6.63,6.63-2.97,6.63-6.63,6.63-6.63-2.97-6.63-6.63Z"/>
              <path class="cls-2" d="M233.1,310.45c1.44,17.33,1.06,34.8-1.15,52.05"/>
              <path class="cls-2" d="M203.02,306.24c-.8,18.49-.78,37.01.06,55.5"/>
            </g>
          </g>
          <g id="face">
            <path class="cls-11" d="M151.39,84.85c-4.99,14.88-7.77,30.49-8.2,46.18-.34,12.34.9,25.19,7.13,35.85,6.37,10.88,17.43,18.4,29.22,22.88,22.8,8.65,48.05,6.88,72.37,4.95,9.99-.79,20.08-1.6,29.68-4.48,9.61-2.87,18.83-8,24.88-15.99,9.41-12.44,9.7-29.36,8.75-44.93-.73-12.01-1.97-24.13-5.96-35.49-3.99-11.35-10.97-22-21.15-28.43-11-6.96-24.52-8.39-37.5-9.27-17.28-1.18-34.82-1.7-51.74,1.99-16.92,3.7-40.99,7.39-47.48,26.73Z"/>
            <g id="face-2" data-name="face">
              <g id="hair">
                <g>
                  <path class="cls-8" d="M301.02,95.57c2.53-3.64,8.3-4.91,12.3-2.69,4,2.22,5.57,7.55,3.35,11.37,7.07,1.49,11.42,9.76,8.37,15.89,4.34.73,7.96,4.28,8.54,8.36s-1.95,8.38-5.95,10.12c2.65,3.84.7,9.64-3.71,11.63-4.41,1.99-10.28.04-12.62-3.97-2.35-4.01-1.11-9.45,2.57-12.47-3.61.67-7.59-.97-9.48-3.92-1.89-2.95-1.57-6.99.77-9.65-4.05-.33-7.71-3.23-8.71-6.91-1-3.67.72-7.86,4.1-9.95-2.29-.67-3.91-2.93-3.72-5.16.19-2.23,2.18-4.21,4.18-2.65Z"/>
                  <path class="cls-8" d="M146.19,105.18c-2.77-.63-5.73-.91-8.43,0-2.7.91-5.06,3.24-5.31,6.08-.25,2.83,2.2,5.81,5.04,5.52-2.55-1.59-6.35-.61-7.81,2.02-1.46,2.63-.3,6.37,2.4,7.71-2.95.38-5.6,2.49-6.63,5.28-1.03,2.79-.39,6.12,1.61,8.32-2.92,2.14-3.54,6.8-1.28,9.62,2.26,2.83,6.94,3.25,9.67.89,1.38,3.67,6.7,5.08,9.72,2.58,3.02-2.5,2.63-7.99-.71-10.03,1.22,1.37,3.42,1.54,5.06.72,1.64-.82,2.76-2.43,3.42-4.14,1.76-4.6.27-10.26-3.54-13.39,3.24-.25,6.12-2.97,6.56-6.19.44-3.22-1.62-6.61-4.68-7.71,2.17-1.2,3.05-4.28,1.84-6.45-1.21-2.17-4.29-3.04-6.92-.83Z"/>
                </g>
                <g>
                  <path class="cls-8" d="M252.59,96.5c-1.82,2.57-.78,6.66,2.04,8.05,2.82,1.39,6.7-.27,7.64-3.27.47,2.63,2.61,4.88,5.21,5.49,2.6.61,5.52-.46,7.11-2.6.24,2.72,2.08,5.25,4.6,6.31,2.52,1.06,5.61.61,7.72-1.13.98,2.69,2.59,5.34,5.16,6.61,2.57,1.27,6.21.61,7.49-1.96.9-1.81.42-4.05-.69-5.73-1.11-1.68-2.78-2.91-4.42-4.08-1.08-.77-2.22-1.56-3.53-1.77-1.31-.21-2.85.33-3.34,1.57.69-1.9-.05-4.22-1.72-5.36-1.67-1.14-4.1-.99-5.62.34-1.07-4.83-7.57-7.46-11.7-4.73-2.48-2.42-6.17-3.53-9.58-2.89-3.41.64-6.44,3.02-6.36,5.15Z"/>
                  <path class="cls-8" d="M197.6,103.47c1.99,1.72,5.55.27,6.16-2.28.6-2.56-1.43-5.27-3.99-5.85-2.56-.58-5.31.69-6.97,2.72-2.13-2.22-5.45-3.22-8.45-2.55-3,.67-5.58,2.99-6.57,5.9-1.4-1.92-4.17-2.69-6.36-1.77-2.19.92-3.57,3.45-3.16,5.79-1.41-1.18-3.53-1.42-5.17-.59-1.64.83-2.7,2.68-2.59,4.52-3.65-1.62-8.48.7-9.5,4.56s2.06,8.26,6.03,8.64,7.82-3.36,7.55-7.35c-.83,2.62,2.75,4.87,5.35,3.98,2.6-.89,4.15-3.49,5.48-5.9,1.44,2.1,4.53,2.86,6.78,1.66,2.25-1.2,3.34-4.19,2.39-6.56,2.18,1.7,5.33,2.04,7.82.84,2.49-1.2,4.19-3.88,5.21-5.76Z"/>
                </g>
                <g>
                  <path class="cls-8" d="M229.96,124.91c7.27,8.97,19.37,12.52,30.87,13.48,11.51.95,23.17-.19,34.57,1.64,11.4,1.83,23.1,7.43,28.13,17.82,3.7,7.64,3.09,17.19-1.55,24.29-4.64,7.1-13.15,11.5-21.63,11.17,5.29.16,9.55,5.35,9.72,10.63.17,5.29-3.05,10.27-7.35,13.35-4.3,3.08-9.57,4.51-14.79,5.36,8.08,3.23,10.56,14.66,6.15,22.16-4.41,7.51-13.66,11.1-22.37,10.99,6.55,5.97,6.17,17.12.88,24.23-5.29,7.11-14.19,10.69-23.2,12.19.73,7.66-5.49,14.67-12.75,17.22-7.27,2.55-15.26,1.59-22.81.11-5.53-1.09-11.26-2.58-15.39-6.42-4.13-3.84-5.95-10.7-2.56-15.2-6.14.27-12.29-3.29-15.11-8.75-2.82-5.46-2.16-12.54,1.62-17.39-7.18-2.23-13.19-7.93-15.81-14.98-2.62-7.05-1.78-15.29,2.21-21.67-7.19-.16-14.04-5.13-16.41-11.93-2.37-6.79-.12-14.95,5.41-19.55-8.54-2.88-15.29-10.53-17.08-19.36-1.8-8.83,1.42-18.51,8.15-24.5,8.62-7.67,21.04-8.71,32.47-10.27,15.21-2.07,30.2-5.7,44.67-10.8,1.28-.45,2.62-.95,3.52-1.97s1.21-2.71.44-1.86Z"/>
                  <g>
                    <path class="cls-2" d="M146.35,186.03c5.71,6.38,14.28,10.09,22.84,9.89.71-.02,1.6-.19,1.78-.88.22-.83-.78-1.43-1.61-1.68-3.39-1.03-7.12-1.66-10.42-.38-3.3,1.28-5.84,5.05-4.67,8.39"/>
                    <path class="cls-2" d="M163.82,224.34c4.67,1.59,9.82,1.71,14.56.32.77-.22,1.66-.66,1.69-1.46.03-.82-.87-1.33-1.66-1.55-5.09-1.41-11,1.67-14.59,2.68Z"/>
                    <path class="cls-2" d="M177.33,259.51c2.84,1.65,6.07,2.63,9.36,2.84,1.1.07,2.29.03,3.18-.61.89-.65,1.26-2.1.46-2.86-.59-.56-1.51-.52-2.31-.37-4.69.91-8.59,4.99-10.69,1Z"/>
                    <path class="cls-2" d="M193.44,287.93c3.34,1.46,7.27,1.49,10.63.09.9-.38,1.89-1.08,1.79-2.05-.1-1.02-1.33-1.5-2.35-1.59-4.02-.33-8.11,2.23-10.07,3.55Z"/>
                    <path class="cls-2" d="M302.81,192.58c-4.23,1.35-8.93,1.17-13.04-.5-1.01-.41-2.14-1.13-2.13-2.23,0-.82.7-1.51,1.48-1.75.78-.25,1.63-.14,2.43,0,6.38,1.11,12.51,4.63,11.25,4.48Z"/>
                    <path class="cls-2" d="M288.99,222.32c-4.28,1.92-9.33,2.05-13.7.34-1.09-.43-2.34-1.47-1.83-2.52.3-.61,1.06-.82,1.73-.93,7.3-1.14,15.05,2.54,13.8,3.1Z"/>
                  </g>
                </g>
              </g>
              <g id="face-3" data-name="face">
                <g>
                  <circle cx="275.85" cy="124.68" r="3.04"/>
                  <circle cx="186.64" cy="124.67" r="3.04"/>
                </g>
                <ellipse class="cls-6" cx="232.01" cy="127.08" rx="9.78" ry="6.35"/>
                <ellipse class="cls-4" cx="233.04" cy="157.58" rx="5.29" ry="6.87"/>
                <ellipse class="cls-12" cx="186.64" cy="140.97" rx="14.06" ry="10.01"/>
                <ellipse class="cls-12" cx="274.76" cy="140.97" rx="13.74" ry="10.01"/>
              </g>
            </g>
          </g>
          <g id="hat">
            <path class="cls-6" d="M303.06,73.81c-9.19-23.37-26.36-43.64-48.08-56.75C233.27,3.95,207.13-1.94,181.77.57c-11.89,1.18-23.78,4.23-33.9,10.5-14.99,9.29-24.96,25.01-30.35,41.61-5.39,16.6-6.63,34.19-7.41,51.6,2.46,1.48,4.91,2.97,7.37,4.45,6.7-22.16,18.34-42.87,33.86-60.24,2.04,12.03,1.86,24.42-1.02,36.44,49.73-13.95,102.5-17.35,152.74-11.1Z"/>
            <path class="cls-8" d="M159.79,76.08c19.76-8.51,39.56-13.58,61.94-17.2,21.9-3.54,44.42-1.97,65.39,5.2,8.7,2.98,17.41,7.05,23.61,13.81,5.77,6.3,9.04,15.29,6.72,23.46-55.26-22.42-120.52-19.58-173.54,7.55-1.02-3.56-.94-7.82-.33-12.02,1.35-9.22,7.53-17.06,16.21-20.79Z"/>
            <ellipse class="cls-8" cx="111.85" cy="108.89" rx="9.64" ry="9.48"/>
            <path class="cls-2" d="M157.61,24.74c.62,8.38-1.65,16.94-6.35,23.95"/>
            <path class="cls-2" d="M151.44,48.44c1.28-7.33.24-15.04-2.94-21.79"/>
            <path class="cls-2" d="M318.51,90.3c-55.74-22.86-122.19-18.69-174.53,10.93"/>
          </g>
          <g>
            <path class="cls-10" d="M86.55,348.78c89.81,21.5,178.34,23.32,265.14,6.02,3.46,20.91,3.31,16.59,2.46,38.61-148.64,16.65-169.04,9.91-268.79-10.7-.47-.1-.51-.65-.87-.98-1.97-1.79-2.63-34.07,2.06-32.95Z"/>
            <g>
              <path class="cls-2" d="M87.82,351.28c29.7,8.52,60.2,14.24,90.96,17.05"/>
              <path class="cls-2" d="M86.14,379.6c30.26,6.25,50.62,12.17,93.93,16.58"/>
              <path class="cls-2" d="M251.28,369.16c24.68-.11,49.36-2.05,73.75-5.8"/>
              <path class="cls-2" d="M252.2,398.59c40.52-1.56,64.71-4.56,95.73-10.45"/>
              <path class="cls-2" d="M258.64,393.95c1.71-.11,3.41-.22,5.12-.33"/>
              <path class="cls-2" d="M269.34,392.63c2.16-.21,4.32-.43,6.49-.64"/>
              <path class="cls-2" d="M281.38,391.6c1.99-.14,3.99-.28,5.98-.42"/>
              <path class="cls-2" d="M295.23,391.27c2.1-.24,4.2-.48,6.3-.71"/>
              <path class="cls-2" d="M308.38,390c3.11-.34,6.22-.68,9.33-1.03"/>
              <path class="cls-2" d="M324.41,387.85c1.85-.13,3.7-.25,5.55-.38"/>
              <path class="cls-2" d="M337.84,385.9c2.06-.12,4.11-.23,6.17-.35"/>
              <path class="cls-2" d="M257.6,372.07c2.4-.12,4.81-.25,7.21-.37"/>
              <path class="cls-2" d="M271.13,371.05c1.83-.07,3.66-.13,5.48-.2"/>
              <path class="cls-2" d="M284.56,370.57l7.2-.45"/>
              <path class="cls-2" d="M300.07,369.46c2.14-.19,4.27-.37,6.41-.56"/>
              <path class="cls-2" d="M314.22,368.68c2.33-.29,4.66-.58,6.99-.87"/>
              <path class="cls-2" d="M87.67,374.88c1.66.53,3.31,1.05,4.97,1.58"/>
              <path class="cls-2" d="M96.57,376.86c1.93.5,3.85,1,5.78,1.5"/>
              <path class="cls-2" d="M107,379.6c1.78.38,3.55.76,5.33,1.14"/>
              <path class="cls-2" d="M117.1,381.62c2.71.87,5.51,1.46,8.35,1.74"/>
              <path class="cls-2" d="M130.11,384.11c2.16.53,4.32,1.05,6.47,1.58"/>
              <path class="cls-2" d="M140.02,386.35c2.12,1.02,4.43,1.64,6.78,1.81"/>
              <path class="cls-2" d="M151,389c1.5.31,2.99.63,4.49.94"/>
              <path class="cls-2" d="M161.4,390.48c1.74.2,3.48.4,5.23.6"/>
              <path class="cls-2" d="M171.32,391.58c1.47.09,2.95.17,4.42.26"/>
              <path class="cls-2" d="M89.49,354.56c1.84.5,3.68,1.01,5.51,1.51"/>
              <path class="cls-2" d="M99.43,357.27c1.74.47,3.48.95,5.22,1.42"/>
              <path class="cls-2" d="M109.77,359.78c1.81.28,3.63.57,5.44.85"/>
              <path class="cls-2" d="M119.9,362.24c1.94.39,3.88.77,5.82,1.16"/>
              <path class="cls-2" d="M132,364.27c1.44.42,2.89.83,4.33,1.25"/>
              <path class="cls-2" d="M140.79,366.38c2.01.18,4.03.36,6.04.54"/>
              <path class="cls-2" d="M152.92,368.25c1.7.31,3.41.62,5.11.93"/>
              <path class="cls-2" d="M164.34,369.73c1.9.36,3.8.72,5.7,1.08"/>
            </g>
            <g>
              <path class="cls-3" d="M182.46,361.87c2-2.28,4.92-3.55,7.96-3.5l47.17.73c2.91.04,5.9.11,8.58,1.22,7.7,3.21,9.54,13.09,10.28,21.4.67,7.46.71,16.37-5.38,20.73-3.77,2.69-8.76,2.69-13.39,2.59-14.95-.33-29.91-.66-44.86-1-3.99-.09-8.26-.27-11.47-2.63-4.06-2.98-5.2-8.5-5.56-13.52-.66-9.35.35-18.82,6.67-26.02Z"/>
              <path class="cls-10" d="M185.71,364.95c1.83-1.93,4.49-3,7.26-2.96l43.02.62c2.65.04,5.38.09,7.83,1.03,7.03,2.71,8.7,11.06,9.38,18.08.61,6.3.65,13.83-4.91,17.51-3.44,2.27-7.99,2.28-12.21,2.19-13.64-.28-27.28-.56-40.92-.84-3.64-.07-7.53-.23-10.46-2.22-3.7-2.52-4.74-7.18-5.07-11.42-.61-7.9.32-15.9,6.08-21.99Z"/>
              <g class="cls-13">
                <g>
                  <path class="cls-2" d="M181.19,368.21c25.84,1.56,46.31,1.93,72.27.93"/>
                  <path class="cls-2" d="M179.17,396.16c25.22,3.42,38.12,2.73,72.63,2.73"/>
                  <path class="cls-2" d="M182.72,372.56c1.83-.07,3.66-.13,5.49-.2"/>
                  <path class="cls-2" d="M194.7,372.1c1.99.05,3.97.09,5.96.14"/>
                  <path class="cls-2" d="M206.6,372.24c2.38-.03,4.76-.06,7.14-.09"/>
                  <path class="cls-2" d="M220.07,372.05c2.29-.02,4.59-.03,6.88-.05"/>
                  <path class="cls-2" d="M234.62,372.16c2.27-.04,4.53-.08,6.8-.13"/>
                  <path class="cls-2" d="M182.63,392.88c2,.14,4.01.27,6.01.41"/>
                  <path class="cls-2" d="M193.08,393.29c2.35.02,4.69.04,7.04.07"/>
                  <path class="cls-2" d="M206.53,394.02c1.86,0,3.73,0,5.59,0"/>
                  <path class="cls-2" d="M218.61,394.4c2.23.02,4.46.04,6.7.06"/>
                  <path class="cls-2" d="M230.42,394.86c2.12.14,4.24.28,6.35.42"/>
                  <path class="cls-2" d="M242.61,394.72l5.83.16"/>
                </g>
              </g>
            </g>
            <path class="cls-3" d="M253.96,378.71c-7.26.35-14.53.69-21.79,1.04.25,1.46.5,2.92.38,4.56,7.41.21,14.84.06,22.24-.43-.06-1.71-.12-3.42-.83-5.17Z"/>
          </g>
          <g id="Right-hand">
            <path class="cls-6" d="M387.81,316.09c-33.71-36.07-70.36-69.39-109.31-98.54-11.35,6.56-22.7,13.11-34.05,19.67-1.59.92-3.3,1.99-3.85,3.73-.65,2.04.54,4.17,1.69,5.99,28.38,45.09,56.96,90.44,92.88,129.79,10.01,10.97,21.98,22.11,36.8,23.03,12.64.79,25.08-6.69,31.57-17.57,6.49-10.88,7.34-24.61,3.67-36.73-3.67-12.12-12.37-21.85-19.39-29.37Z"/>
            <g>
              <path class="cls-11" d="M243.26,239.2c-14.69-8.02-25.41-22.15-28.66-37.77-.52-2.51-.85-5.15-.01-7.59.84-2.43,3.12-4.59,5.86-4.65-1.15-2.46-.45-5.77,1.71-7.87s3.6-2.53,6.53-1.54c.08-2,1.48-4.47,3.19-5.59,2.8-1.83,5.12-1.57,6.84-.39-3.31-6.84-6.43-15.68-6.81-23-.11-2.2-.76-5.44,1.46-6.15,3.88-1.24,7.34,4.19,8.61,6.72,1.59,3.17,7.17,13.1,8.28,16.44.7,2.11,2.73,4.68,4.3,6.72.92,1.19,3.66,3.87,4.97,5.85.53.8,3.9,11.52,4.13,12.57,1.11,5.08,3.83,14.65,4.15,15.63.06,4.26,5.15,8,3.61,12.02-.64,1.68-2.3,2.8-3.87,3.82-7.7,4.97-15.39,9.94-24.3,14.8Z"/>
              <path class="cls-2" d="M237.92,173.06c.88,1.77,1.77,3.54,2.65,5.31"/>
              <path class="cls-2" d="M228.69,179.51c.3.92,1.87,3.13,2.5,4.33"/>
              <path class="cls-2" d="M219.84,188.05c.43.73.85,1.46,1.28,2.2"/>
            </g>
            <path class="cls-2" d="M241.8,246.69c16.17,25.49,29.1,44,46.15,68.91,19.32,28.22,39.11,56.93,66.2,77.81"/>
            <path class="cls-2" d="M279.84,218.11c46.81,33.65,88.91,73.85,124.69,119.05"/>
            <path class="cls-8" d="M236.33,246.09c-1.64-4.42-.37-9.4,3.15-12.53l23.36-20.74c2.89-2.57,6.03-5.25,9.86-5.77,5.34-.72,10.19,2.92,14.35,6.36,4.64,3.83,9.73,8.72,9.06,14.7-.4,3.55-2.81,6.52-5.19,9.19-6.92,7.76-14.43,15-22.45,21.63-3.22,2.67-6.72,5.32-10.85,6-5.8.96-11.67-2.34-15.31-6.96-2.52-3.2-4.16-6.94-5.99-11.88Z"/>
            <path class="cls-2" d="M268.01,208.81c3.1-3.14,8.27-3.44,12.34-1.76,4.08,1.68,7.26,4.97,10.09,8.36,1.8,2.17,3.53,4.45,4.57,7.07,1.04,2.62,1.32,5.64.22,8.24"/>
            <path class="cls-2" d="M243.17,230.29c-2.79,2.34-5.36,5.02-7.05,8.24-1.7,3.22-2.46,7.03-1.55,10.56.93,3.61,3.48,6.59,6.27,9.07,3.34,2.96,7.25,5.46,11.62,6.32,4.38.87,9.28-.11,12.44-3.26"/>
          </g>
        </g>
      </g>
      <g id="Gift">
        <path class="cls-11" d="M30.3,182.11c-4.92-7.49-10.2-15.31-18.21-19.32-1.93-.97-4.62-1.54-5.99.13-1.3,1.59-.39,3.95.56,5.78,1.44,2.77,2.87,5.53,4.31,8.3,1.65,3.18,3.81,6.74,7.35,7.25,4.07.59,7.73-3.24,11.98-2.14Z"/>
        <g>
          <path class="cls-12" d="M23.33,182.69c37.26-2.89,74.79-2.38,112.21,1.43,6.85.7,12.23,6.13,12.98,12.97,4.4,40.05,3.99,80.74-1.38,121.57-.36,2.73-2.61,4.84-5.36,5.01-41.55,2.63-83.4.21-124.6-8.59-2.4-.51-4.21-2.49-4.53-4.92-4.85-37.35-6.78-75.11-3.49-113.34.65-7.54,6.63-13.55,14.17-14.13Z"/>
          <g class="cls-9">
            <circle class="cls-8" cx="141.09" cy="311.16" r="14.49" transform="translate(-197.65 355.64) rotate(-73.09)"/>
            <circle class="cls-8" cx="119.65" cy="258.53" r="14.49"/>
            <circle class="cls-8" cx="151.25" cy="215.12" r="14.49" transform="translate(-74.05 79.51) rotate(-23.84)"/>
            <circle class="cls-8" cx="105.17" cy="180" r="14.49" transform="translate(-101.43 207.9) rotate(-67.39)"/>
            <circle class="cls-8" cx="78.79" cy="221.45" r="14.49"/>
            <circle class="cls-8" cx="75.76" cy="297.17" r="14.49" transform="translate(-230.85 303.18) rotate(-76.82)"/>
            <circle class="cls-8" cx="31.34" cy="265.1" r="14.49" transform="translate(-233.87 234.69) rotate(-76.72)"/>
            <circle class="cls-8" cx="26.05" cy="194.48" r="14.49" transform="translate(-169.22 175.16) rotate(-76.72)"/>
            <circle class="cls-8" cx="16.85" cy="317.17" r="14.49" transform="translate(-219.33 104.81) rotate(-45)"/>
          </g>
        </g>
        <path class="cls-5" d="M92.82,180.07l1.45,144.37c0,.57-.47,1.03-1.04.99l-22.75-1.23c-.32-.02-.57-.28-.58-.59l-3.69-143.11,26.62-.42Z"/>
        <g id="card">
          <polygon class="cls-7" points="114.72 187.41 163.31 215.88 133.92 260.77 86.53 230.04 114.72 187.41"/>
          <g>
            <path d="M114.96,212.11l6.17-9.54,6.26,4.05-.54.83-5.32-3.44-2.27,3.51,4.49,2.9-.5.78-4.49-2.9-2.86,4.42-.94-.61Z"/>
            <path d="M126.48,219.65c-.66-.43-1.18-.96-1.56-1.59-.38-.63-.61-1.3-.71-2-.1-.71-.07-1.42.09-2.14.16-.72.44-1.39.83-2,.41-.64.92-1.17,1.52-1.61.6-.43,1.25-.75,1.95-.93.69-.19,1.4-.24,2.11-.15.72.09,1.39.34,2.03.75.66.43,1.18.96,1.55,1.6.37.64.6,1.31.69,2.02s.06,1.42-.1,2.14c-.16.72-.43,1.38-.82,1.98-.41.64-.92,1.17-1.52,1.61-.6.43-1.25.74-1.94.93s-1.39.24-2.1.15c-.72-.09-1.39-.34-2.03-.75ZM126.07,212.53c-.34.52-.57,1.07-.71,1.66-.14.59-.17,1.17-.1,1.75.07.57.25,1.11.54,1.61.29.5.7.92,1.22,1.26.54.35,1.1.55,1.69.6s1.16-.01,1.71-.19c.55-.18,1.06-.46,1.53-.82.47-.37.87-.8,1.19-1.29.34-.52.57-1.08.71-1.67.14-.59.17-1.17.09-1.74s-.26-1.1-.55-1.6c-.29-.5-.69-.91-1.21-1.25-.54-.35-1.1-.55-1.69-.6s-1.15,0-1.7.19c-.55.18-1.06.45-1.53.82-.47.37-.87.8-1.19,1.29Z"/>
            <path d="M132.78,223.63l6.17-9.54,4.03,2.61c.41.27.73.6.97,1,.23.4.38.82.45,1.26.07.44.06.89-.04,1.34-.09.45-.26.86-.5,1.22-.23.35-.49.65-.8.9-.31.25-.64.45-.99.58-.35.14-.71.21-1.08.21s-.74-.06-1.1-.21l-.04,5.19-1.06-.69.03-4.97-2.82-1.82-2.28,3.52-.94-.61ZM136.54,219.89l3.12,2.02c.28.18.57.28.88.31.31.03.61,0,.9-.11.29-.1.57-.25.83-.46.26-.2.48-.45.66-.73.19-.29.31-.6.38-.93.07-.33.08-.65.03-.96-.05-.31-.15-.6-.31-.87-.16-.27-.37-.49-.63-.66l-3.04-1.96-2.81,4.35Z"/>
            <path d="M113.66,216.08l-.2,7.15,6.46-3.1,1.02.66-7.57,3.6-2.29,3.55-.94-.61,2.31-3.57.18-8.35,1.03.67Z"/>
            <path d="M119.35,233.39c-.66-.43-1.18-.96-1.56-1.59-.37-.63-.61-1.3-.71-2-.1-.71-.07-1.42.09-2.14.16-.72.44-1.39.83-2,.41-.64.92-1.17,1.52-1.61.6-.44,1.25-.75,1.95-.93.69-.19,1.4-.24,2.11-.15.72.09,1.39.34,2.03.75.66.43,1.18.96,1.55,1.6.37.64.6,1.31.69,2.02.09.71.06,1.42-.1,2.14-.16.71-.43,1.37-.82,1.97-.41.64-.92,1.17-1.52,1.61-.6.43-1.25.75-1.94.93-.69.19-1.39.24-2.1.15-.72-.09-1.39-.34-2.03-.75ZM118.94,226.26c-.34.52-.57,1.07-.71,1.66-.14.59-.17,1.17-.1,1.75s.25,1.11.54,1.61c.29.5.7.92,1.23,1.26.54.35,1.1.55,1.69.6.59.05,1.16-.01,1.71-.19.55-.18,1.06-.45,1.53-.82s.87-.8,1.19-1.29c.34-.52.57-1.08.71-1.67.14-.59.16-1.17.09-1.74-.08-.57-.26-1.1-.55-1.6-.29-.5-.69-.91-1.21-1.25-.54-.35-1.1-.55-1.69-.61s-1.15,0-1.7.19c-.55.18-1.06.45-1.53.82-.47.37-.87.8-1.19,1.29Z"/>
            <path d="M130.03,239.09c.6.39,1.17.6,1.72.62.55.03,1.06-.06,1.54-.28.48-.22.92-.54,1.32-.95.4-.41.76-.86,1.07-1.35l3.11-4.81.94.61-3.11,4.81c-.42.64-.88,1.21-1.4,1.7-.52.48-1.08.84-1.68,1.08-.6.23-1.24.31-1.92.24-.68-.07-1.39-.34-2.12-.82-.75-.49-1.3-1.03-1.64-1.64-.34-.61-.52-1.23-.54-1.88-.02-.65.08-1.3.32-1.96.24-.66.55-1.29.95-1.9l3.11-4.81.93.6-3.11,4.81c-.32.5-.59,1.02-.8,1.56-.21.54-.31,1.07-.31,1.59,0,.52.12,1.02.37,1.5.25.48.67.91,1.26,1.29Z"/>
          </g>
        </g>
        <g>
          <path class="cls-5" d="M81.16,185.53c3.18-12.17.68-25.44-5.44-36.42-6.13-10.99-15.65-19.82-26.32-26.48-5.15-3.21-11.78-5.96-17.03-2.93-3.54,2.05-5.31,6.19-6.12,10.2-2.35,11.57,1.44,23.77,8.15,33.48,6.71,9.71,16.12,17.24,25.88,23.87,1.78,1.21,3.67,2.43,5.81,2.68,2.14.25,4.59-.79,5.23-2.84-13.8-9.33-24.6-23.01-30.47-38.59-1.12-2.96-2.07-6.14-1.55-9.26.53-3.12,2.96-6.13,6.12-6.32,2.46-.14,4.69,1.38,6.61,2.93,16.28,13.14,25.02,29.32,25.13,50.25,1.3,0,3.01,3.3,4.01-.56Z"/>
          <path class="cls-5" d="M84,186.54c16.65-10.89,30.18-27.69,33.7-47.27.44-2.46.72-5.02.16-7.46-.57-2.44-2.11-4.77-4.44-5.7-2.47-.99-5.37-.24-7.53,1.31-2.16,1.54-3.73,3.78-5.17,6.01-9.66,14.88-16.18,31.79-19.01,49.3-1.57.24-3.01-1.14-3.41-2.68-.4-1.53-.04-3.15.33-4.69,4.61-19.45,9.39-39.31,20.15-56.15,2.43-3.8,5.2-7.47,8.85-10.11,3.65-2.64,8.3-4.17,12.71-3.29,5.03,1,9.12,5.02,11.16,9.72,2.05,4.71,2.29,10.02,1.77,15.12-1.79,17.63-12.12,33.35-24.42,46.1-3.36,3.49-6.98,6.87-11.4,8.85-4.42,1.98-9.81,2.36-13.44.92Z"/>
          <path class="cls-5" d="M82.54,183c-6.32-1.34-13.01,1.83-17.13,6.81-4.11,4.98-5.96,11.49-6.63,17.91s-.25,12.91-.39,19.37c-.38,18.51-5.33,36.91-14.29,53.11-.9,1.63-1.87,3.57-1.11,5.27.5,1.12,1.62,1.81,2.72,2.35,3.83,1.9,8.13,2.84,12.41,2.71,7.65-9.44,11.54-21.61,11.99-33.75.32-8.53-.98-17.02-1.79-25.52-.81-8.5-1.13-17.2,1.09-25.44,2.22-8.24,7.31-16.05,13.12-22.82Z"/>
          <path class="cls-5" d="M82.72,181.55c10.59,6.25,17.45,17.48,21.22,29.18,3.77,11.7,4.85,24.07,6.46,36.26,1.61,12.19,3.87,24.55,9.72,35.37.5.93,1.02,2.11.4,2.97-.38.52-1.05.71-1.67.86-7.36,1.83-14.72,3.66-22.08,5.5,7.15-36.41-.02-75.43-19.63-106.93,1.38-.12,2.71-.73,5.58-3.21Z"/>
          <path class="cls-5" d="M69.6,190.15v-6.35c0-4.67,3.79-8.46,8.46-8.46h0c4.67,0,8.46,3.79,8.46,8.46v6.35c0,4.67-3.79,8.46-8.46,8.46h0c-4.67,0-8.46-3.79-8.46-8.46Z"/>
        </g>
        <g>
          <path class="cls-11" d="M7.8,184.4c6.15-.29,12.33.09,18.39,1.14,2.89.5,6.29,1.65,6.93,4.52.48,2.16-.99,4.37-2.92,5.46-1.93,1.09-4.21,1.31-6.41,1.51,2.27.24,4.59.49,6.68,1.42,2.09.92,3.96,2.65,4.46,4.88.7,3.09-1.45,6.26-4.24,7.78-2.78,1.52-6.06,1.76-9.34,1.94,3.65.05,7.28.92,10.56,2.54,1.21.6,2.43,1.36,3.02,2.57.99,2.02-.16,4.46-1.72,6.07-2.48,2.56-6.08,4-9.53,4.37,3.66-.93,7.84,1.25,9.16,4.79,1.32,3.53-.4,7.93-3.77,9.62-2.02,1.01-4.36,1.1-6.61,1.11-3.29,0-6.6-.11-9.83-.76-2.71-.55-5.42-1.5-7.51-3.31s-3.47-4.6-3.07-7.34c.41-2.74,2.91-5.17,5.66-5.44-2.55-1.07-4.43-3.57-4.76-6.31-.33-2.74.92-5.62,3.07-7.66-2.39-1.8-3.84-4.78-3.78-7.77.05-2.99,1.61-5.91,3.7-8.29-1.63-1.16-3.3-2.35-4.49-3.96-1.19-1.61-1.85-3.75-1.23-5.66.83-2.54,3.56-3.02,7.56-3.2Z"/>
          <path class="cls-2" d="M7,227.26c6.82.8,13.7,1.11,20.56.94"/>
          <path class="cls-2" d="M5.86,212.94c5.48-.02,14.83-.03,20.31-.05"/>
          <line class="cls-2" x1="6.2" y1="196.96" x2="26.86" y2="196.76"/>
        </g>
        <g>
          <path class="cls-2" d="M76.82,175.51c1.84-.12,3.71.11,5.46.7"/>
          <path class="cls-2" d="M86.55,184.23c-.41,3.12-1.01,6.22-1.8,9.26-.25.99-.57,2.03-1.35,2.69"/>
          <path class="cls-2" d="M69.44,185.88c.04,2.85.63,5.69,1.73,8.31.37.89.95,1.87,1.9,1.99"/>
          <path class="cls-2" d="M81.4,163.83c-1.77,3.92-2.96,8.1-3.53,12.37"/>
          <path class="cls-2" d="M54.04,136.64c-16.72-10.5-28.5-3.21-28.5-3.21"/>
          <path class="cls-2" d="M107.38,126.11c6.38-5.86,19.69-7.74,25.98-2.83"/>
          <path class="cls-2" d="M72.93,196.15c-5.2,9.67-5.85,21.13-5.16,32.09s2.59,21.88,2.07,32.84c-.52,10.97-3.84,22.36-11.89,29.82"/>
          <path class="cls-2" d="M96.63,291.86c6.5-32.23,1.67-66.64-13.41-95.73-3.2,1.8-7.28,1.92-10.59.31"/>
          <path class="cls-2" d="M69.5,186.15c.18-1.87.35-3.74.53-5.61"/>
          <path class="cls-2" d="M85.9,180.43c.73,1.38.94,3.03.57,4.54"/>
          <path class="cls-2" d="M69.6,185.74c-1.27-.57-2.42-1.4-3.36-2.43"/>
          <path class="cls-2" d="M86.26,184.73c2.15-1.25,4.11-2.83,5.79-4.66"/>
          <path class="cls-2" d="M65.55,190.01c1.33.57,2.84.7,4.25.36"/>
          <path class="cls-2" d="M85.55,187.52c2.03.52,4.18.53,6.34.18.28.58.56,1.15.85,1.73"/>
        </g>
      </g>
    </g>
  </g>
</svg>